<?xml version="1.0" encoding="utf-8"?>
<!-- Generator: Adobe Illustrator 12.0.1, SVG Export Plug-In . SVG Version: 6.00 Build 51448)  -->
<!DOCTYPE svg PUBLIC "-//W3C//DTD SVG 1.1//EN" "http://www.w3.org/Graphics/SVG/1.1/DTD/svg11.dtd" [
	<!ENTITY ns_svg "http://www.w3.org/2000/svg">
	<!ENTITY ns_xlink "http://www.w3.org/1999/xlink">
]>
<svg  version="1.1" id="Layer_1" xmlns="&ns_svg;" xmlns:xlink="&ns_xlink;" width="514.767" height="514.767"
	 viewBox="0 0 514.767 514.767" overflow="visible" enable-background="new 0 0 514.767 514.767" xml:space="preserve">
<g>
	<path d="M198.602,6.733c-61.081,14.269-113.787,50.292-149.529,99.45h248.979L198.602,6.733z"/>
	<path d="M316.165,508.032c61.081-14.269,113.786-50.292,149.528-99.449H216.715L316.165,508.032z"/>
	<path d="M38.583,121.711C5.481,174.992-6.315,237.732,3.171,297.766l176.055-176.055H38.583z"/>
	<path d="M476.184,393.054c33.102-53.28,44.897-116.021,35.412-176.054L335.541,393.055L476.184,393.054z"/>
	<path d="M6.733,316.164c14.269,61.081,50.292,113.786,99.45,149.529V216.714L6.733,316.164z"/>
	<path d="M508.032,198.602C493.764,137.52,457.74,84.815,408.584,49.072v248.979L508.032,198.602z"/>
	<path d="M121.711,476.184c53.281,33.102,116.021,44.897,176.055,35.412L121.711,335.54V476.184z"/>
	<path d="M393.054,38.583C339.773,5.481,277.033-6.314,217,3.17l176.055,176.055L393.054,38.583z"/>
</g>
</svg>
