<?xml version="1.0" encoding="utf-8"?>
<!-- Generator: Adobe Illustrator 12.0.1, SVG Export Plug-In . SVG Version: 6.00 Build 51448)  -->
<!DOCTYPE svg PUBLIC "-//W3C//DTD SVG 1.1//EN" "http://www.w3.org/Graphics/SVG/1.1/DTD/svg11.dtd" [
	<!ENTITY ns_svg "http://www.w3.org/2000/svg">
	<!ENTITY ns_xlink "http://www.w3.org/1999/xlink">
]>
<svg  version="1.1" id="Layer_1" xmlns="&ns_svg;" xmlns:xlink="&ns_xlink;" width="493.199" height="493.199"
	 viewBox="0 0 493.199 493.199" overflow="visible" enable-background="new 0 0 493.199 493.199" xml:space="preserve">
<path fill-rule="evenodd" clip-rule="evenodd" d="M185.6,121.599c-0.811,9.417-15.845,14.51-10,24c4.487,1.468,4.397-5.194,6-8
	c3.986-6.979,11.016-15.072,24-11c12.095,3.793,19.024,21.89,15,40c-4.438,19.974-35.163,30.813-60,24
	c-16.471-4.518-28.401-21.133-24-44c1.186-6.158,4.422-15.724,8-20C150.968,118.988,171.02,108.832,185.6,121.599z"/>
<path fill-rule="evenodd" clip-rule="evenodd" d="M133.6,137.599c1.602,1.157-7.354,10.959-10.655,16.679
	c-4.569,7.915-3.487,9.676-1.165,17.855c1.735,6.112,2.809,12.426,5.033,18.396c4.164,11.181-4.564,2.056-7.213-0.93
	c-6.236-7.028-18.078-21.467-15.328-31.551C106.028,151.609,129.1,134.349,133.6,137.599z"/>
<path fill-rule="evenodd" clip-rule="evenodd" d="M245.434,161.349c-6.083-2.333-14.917-7.25-16.083-4.333
	c-2.055,5.138,4.917,3.75,10.583,9.75c4.889,5.175,1.583,10.583-4.583,16.417c-4.616,4.366-5.834,3.859-9.917,8.75
	c-8,9.583,2.631,5.602,6.25,3.917c8.518-3.966,33.167-18.083,32.25-25.75C262.937,161.755,253.551,164.462,245.434,161.349z"/>
<path fill-rule="evenodd" clip-rule="evenodd" d="M192.6,199.599c-0.435-1.857-10.139,1.074-16.5,2.833
	c-7.833,2.167-12.223,3.151-18.833-2c-4.939-3.85-9.766-11.94-14.445-16.1c-4.388-3.9-4.222,1.6-1.977,6.742
	c3.646,8.353,12.642,24.134,22.995,25.513C170.451,217.468,193.822,204.814,192.6,199.599z"/>
<g>
	<path d="M481.185,0H12.013C5.378,0,0,5.378,0,12.013v469.173c0,6.634,5.378,12.013,12.013,12.013h469.172
		c6.637,0,12.014-5.379,12.014-12.013V12.013C493.199,5.378,487.822,0,481.185,0L481.185,0z M12.008,12c0.001,0,0.003,0,0.005,0
		h469.172c0.003,0,0.005,0,0.007,0c0.002,0.002,0.005,0.004,0.007,0.007c0,0.002,0,0.004,0,0.006v469.173c0,0.002,0,0.004,0,0.006
		c-0.002,0.002-0.005,0.005-0.008,0.007c-0.002,0-0.004,0-0.006,0H12.013c-0.002,0-0.004,0-0.005,0
		c-0.002-0.002-0.005-0.005-0.008-0.007c0-0.002,0-0.004,0-0.006V12.013c0-0.002,0-0.004,0-0.005
		C12.002,12.005,12.005,12.002,12.008,12L12.008,12z"/>
</g>
<path fill="none" stroke="#000000" stroke-width="9" stroke-linecap="round" stroke-linejoin="round" d="M200.267,222.932
	c-88.667,6-118-21.333-125.333-39.333"/>
<path fill="none" stroke="#000000" stroke-width="9" stroke-linecap="round" stroke-linejoin="round" d="M202.267,419.607
	c-88.333,5.992-118-13.674-127.333-39.333"/>
<line fill="none" stroke="#000000" stroke-width="9" stroke-linecap="round" stroke-linejoin="round" x1="232.979" y1="157.205" x2="410.266" y2="127.599"/>
<line fill="none" stroke="#000000" stroke-width="9" stroke-linecap="round" stroke-linejoin="round" x1="74.933" y1="183.599" x2="100.337" y2="179.356"/>
<line fill="none" stroke="#000000" stroke-width="9" stroke-linecap="round" stroke-linejoin="round" x1="410.266" y1="127.599" x2="200.267" y2="222.932"/>
<line fill="none" stroke="#000000" stroke-width="9" stroke-linecap="round" stroke-linejoin="round" x1="74.933" y1="183.599" x2="74.933" y2="380.274"/>
<path d="M419.6,183.856c0,1.988-1.611,4.382-3.6,5.349L205.867,291.326c-1.988,0.967-3.6,0.139-3.6-1.85v-41.467
	c0-1.988,1.612-4.383,3.6-5.35L416,140.538c1.988-0.966,3.6-0.137,3.6,1.851V183.856z"/>
<path d="M419.6,251.857c0,1.988-1.611,4.382-3.6,5.348L205.867,359.326c-1.988,0.967-3.6,0.139-3.6-1.85v-41.467
	c0-1.987,1.612-4.383,3.6-5.35L416,208.539c1.988-0.966,3.6-0.137,3.6,1.851V251.857z"/>
<path d="M419.6,315.524c0,1.988-1.611,4.382-3.6,5.348L205.867,422.993c-1.988,0.967-3.6,0.139-3.6-1.85v-41.467
	c0-1.987,1.612-4.383,3.6-5.35L416,272.206c1.988-0.966,3.6-0.138,3.6,1.851V315.524z"/>
<path d="M198.708,71.123c-0.75-0.824-1.124-2.098,0-3.671c1.62-2.268,3.454-5.159,4.869-5.994c2.922-1.723,3.971,1.273,5.169,3.371
	s15.882,27.045,17.081,28.469c1.491,1.77,0.899,3.221-1.498,5.169c-3.09,2.512-23.599,19.703-26.67,22.4s-8.331,1.428-4.87-2.322
	c3.596-3.896,20.052-19.066,21.951-20.677c2.472-2.098,2.472-4.195,0.899-6.068C214.173,90.055,198.708,71.123,198.708,71.123z"/>
</svg>
