<?xml version="1.0" encoding="UTF-8" standalone="no"?>
<svg
   xmlns:dc="http://purl.org/dc/elements/1.1/"
   xmlns:cc="http://web.resource.org/cc/"
   xmlns:rdf="http://www.w3.org/1999/02/22-rdf-syntax-ns#"
   xmlns:svg="http://www.w3.org/2000/svg"
   xmlns="http://www.w3.org/2000/svg"
   xmlns:sodipodi="http://sodipodi.sourceforge.net/DTD/sodipodi-0.dtd"
   xmlns:inkscape="http://www.inkscape.org/namespaces/inkscape"
   width="336.758"
   height="336.488"
   id="svg2178"
   sodipodi:version="0.32"
   inkscape:version="0.45.1"
   sodipodi:docname="CERN_blue.svg"
   sodipodi:docbase="/home/paulini/doc/CMU/Grad_Program/Grad_Webpage/logos"
   inkscape:output_extension="org.inkscape.output.svg.inkscape">
  <metadata
     id="metadata2195">
    <rdf:RDF>
      <cc:Work
         rdf:about="">
        <dc:format>image/svg+xml</dc:format>
        <dc:type
           rdf:resource="http://purl.org/dc/dcmitype/StillImage" />
      </cc:Work>
    </rdf:RDF>
  </metadata>
  <sodipodi:namedview
     inkscape:window-height="638"
     inkscape:window-width="872"
     inkscape:pageshadow="2"
     inkscape:pageopacity="0.0"
     guidetolerance="10.0"
     gridtolerance="10.0"
     objecttolerance="10.0"
     borderopacity="1.0"
     bordercolor="#666666"
     pagecolor="#ffffff"
     id="base"
     inkscape:zoom="1.2095528"
     inkscape:cx="168.379"
     inkscape:cy="168.244"
     inkscape:window-x="450"
     inkscape:window-y="250"
     inkscape:current-layer="svg2178" />
  <defs
     id="defs2180">
    <marker
       id="ArrowEnd"
       viewBox="0 0 10 10"
       refX="0"
       refY="5"
       markerUnits="strokeWidth"
       markerWidth="4"
       markerHeight="3"
       orient="auto">
      <path
         d="M 0 0 L 10 5 L 0 10 z"
         id="path2183" />
    </marker>
    <marker
       id="ArrowStart"
       viewBox="0 0 10 10"
       refX="10"
       refY="5"
       markerUnits="strokeWidth"
       markerWidth="4"
       markerHeight="3"
       orient="auto">
      <path
         d="M 10 0 L 0 5 L 10 10 z"
         id="path2186" />
    </marker>
  </defs>
  <g
     id="g2188">
    <path
       style="stroke:none; fill-rule:evenodd; fill:#2258fa"
       d="M 0 336.488L 336.488 336.488L 336.488 0L 0 0L 0 336.488z"
       id="path2190" />
    <path
       style="stroke:none; fill-rule:evenodd; fill:#ffffff"
       d="M 111.953 158.391C 107.68 158.817 99.984 158.817 95.711 158.817L 95.711 139.582L 110.242 139.582C 112.379 139.582 114.515 140.008 116.652 140.008C 116.652 139.582 116.226 138.727 116.226 138.297C 116.226 137.871 116.652 137.02 116.652 136.586C 114.515 136.586 112.379 137.016 110.242 137.016L 95.711 137.016L 95.711 120.344L 104.687 120.344L 111.953 120.774C 114.09 120.774 116.226 121.195 118.363 121.195C 118.363 120.774 117.933 119.914 117.933 119.492C 117.933 118.637 118.363 118.211 118.363 117.356L 89.293 117.356L 89.293 161.817L 118.789 161.817C 118.789 161.387 118.363 160.539 118.363 160.106C 118.363 159.25 118.789 158.824 118.789 157.969C 116.652 158.395 114.09 158.395 111.953 158.395M 171.801 117.352L 169.23 117.352L 169.23 162.235C 169.66 161.809 170.512 161.809 171.371 161.809C 171.801 161.809 172.652 161.809 173.074 162.235L 173.074 126.754L 173.93 126.754L 205.133 157.961C 206.836 159.664 208.121 160.949 208.98 162.231L 211.121 162.231L 211.121 117.348C 210.262 117.348 209.836 117.774 208.98 117.774C 208.125 117.774 207.699 117.348 206.84 117.348L 206.84 151.117L 206.422 151.117L 171.801 117.352zM 82.453 154.973C 81.176 156.25 75.187 160.102 67.062 160.102C 55.953 160.102 47.832 152.41 47.832 139.582C 47.832 128.899 54.238 119.063 67.492 119.063C 75.183 119.063 80.312 123.336 81.598 124.621L 82.023 124.621C 82.449 122.91 82.875 121.199 83.305 119.492C 78.605 117.781 73.047 116.5 67.918 116.5C 52.527 116.5 40.558 125.051 40.558 139.586C 40.558 153.692 50.387 162.664 66.207 162.664C 71.758 162.664 77.746 161.817 82.019 159.246L 82.453 154.973zM 131.613 137.871L 131.613 119.918C 134.601 119.918 142.726 119.496 145.293 119.918C 150.848 120.774 153.414 123.766 153.414 128.035C 153.414 133.164 149.57 136.586 144.015 137.442C 140.594 138.293 132.898 137.863 131.617 137.863M 160.258 156.68L 145.293 139.582C 152.555 138.731 160.258 134.883 160.258 127.188C 160.258 120.781 155.129 117.36 144.015 117.36L 125.633 117.36L 125.633 162.242C 126.914 161.817 127.769 161.817 129.055 161.817C 129.906 161.817 131.187 161.817 132.043 162.242L 132.043 140.442L 138.023 140.442L 143.582 146.426L 152.125 156.254C 153.836 158.391 155.117 160.102 156.828 162.235C 158.105 161.809 159.387 161.809 161.101 161.809C 162.379 161.809 163.66 161.809 164.945 162.235L 163.664 160.531L 160.258 156.68zM 119.07 255.164C 114.387 254.488 109.793 253.508 105.293 252.277C 116.687 263.512 130.433 272.246 145.687 277.656L 150.883 271.961C 139.297 268.231 128.523 262.555 119.07 255.172M 95.367 106.836L 104.273 106.906C 115.441 92.414 144.109 70.934 182.562 70.934C 190.926 70.934 199.051 71.957 206.84 73.848C 203.781 70.656 200.519 67.664 197.058 64.903C 192.316 64.277 187.484 63.918 182.566 63.918C 148.176 63.918 116.39 79.559 95.371 106.832M 182.566 276.985C 177.648 276.985 172.824 276.559 168.062 275.887L 162.402 282.102C 168.965 283.317 175.699 283.996 182.57 283.996C 213.844 283.996 242.086 270.867 262.14 249.852L 260.207 241.578C 241.308 263.246 213.519 276.985 182.57 276.985M 274.332 234.598C 283.293 221.086 289.305 205.488 291.566 188.711L 292.043 188.777L 309.715 62.481L 302.765 61.5081L 290.203 151.305C 282.797 116.074 258.519 86.985 226.203 72.9691C 229.094 76.746 231.746 80.711 234.148 84.84C 264.871 102.692 285.59 135.942 285.59 173.961C 285.59 192.481 280.652 209.86 272.062 224.891L 274.332 234.598zM 79.543 173.961L 79.566 171.539L 72.555 171.387L 72.527 173.961C 72.527 183.059 73.637 192.102 75.836 200.844C 78.289 210.617 82.055 219.777 86.828 228.223C 90.672 230.391 94.676 232.274 98.805 233.914C 91.461 223.653 85.855 211.961 82.633 199.133C 80.582 190.953 79.539 182.485 79.539 173.961M 238.492 142.145C 238.492 198.953 192.273 245.168 135.465 245.168C 88.14 245.168 47.047 213.156 35.535 167.32C 33.484 159.137 32.441 150.668 32.441 142.149C 32.441 85.3441 78.656 39.125 135.465 39.125C 192.273 39.125 238.492 85.34 238.492 142.149M 135.465 32.106C 74.793 32.106 25.43 81.465 25.43 142.141C 25.43 151.238 26.539 160.274 28.734 169.02C 28.965 169.942 29.281 170.82 29.535 171.735L 29.48 171.742L 57.062 270.473L 63.816 268.582L 46.621 207.031C 66.851 234.742 99.43 252.172 135.461 252.172C 153.523 252.172 170.57 247.774 185.625 240.024L 97.676 336.477L 107.168 336.477L 216.765 216.277L 216.73 216.242C 231.586 199.969 241.594 179.223 244.555 156.293L 286.64 336.481L 293.844 336.481L 242.609 117.11L 242.59 117.113C 234.195 81.156 208.137 51.926 174.078 39.113L 336.758 39.113L 336.758 32.1021"
       id="path2192" />
  </g>
</svg>
