<?xml version="1.0" encoding="utf-8"?>
<!-- Generator: Adobe Illustrator 19.0.0, SVG Export Plug-In . SVG Version: 6.00 Build 0)  -->
<svg version="1.1" id="Layer_1" xmlns="http://www.w3.org/2000/svg" xmlns:xlink="http://www.w3.org/1999/xlink" x="0px" y="0px"
	 viewBox="0 0 560.3 287" style="enable-background:new 0 0 560.3 287;" xml:space="preserve">
<style type="text/css">
	.st0{fill:none;stroke:#000000;stroke-width:2;stroke-miterlimit:10;}
	.st1{stroke:#000000;stroke-miterlimit:10;}
	.st2{fill:none;}
	.st3{font-family:'ColonnaMT';}
	.st4{font-size:72px;}
	.st5{font-family:'GreatVibes-Regular';}
	.st6{font-size:80px;}
</style>
<line id="XMLID_1_" class="st0" x1="46.9" y1="54.8" x2="154.2" y2="135.7"/>
<line id="XMLID_2_" class="st0" x1="154.2" y1="135.7" x2="46.9" y2="228.3"/>
<line id="XMLID_4_" class="st0" x1="513.5" y1="54.8" x2="406.2" y2="135.7"/>
<line id="XMLID_3_" class="st0" x1="406.2" y1="135.7" x2="513.5" y2="228.3"/>
<path id="XMLID_5_" class="st0" d="M154.2,134.4c7.2-13.3,12.9-16,16.7-15.9c4.3,0.1,6.5,3.7,16.7,14.6
	c16.9,18.2,20.2,18.4,21.9,18.3c5-0.4,5.7-5.5,18-19.5c11.8-13.4,15.3-13.5,16.7-13.4c4.8,0.3,6.1,5.1,15.4,15.9
	c9.4,10.8,15.4,17.7,21.9,17.1c3.6-0.3,4.7-2.8,15.4-14.6c13.3-14.7,15.9-15.6,18-15.9c6-0.7,11.4,4,21.9,13.4
	c12.8,11.5,15.5,17.7,20.6,17.1c1.5-0.2,3.5-1.1,12.9-15.9c7.7-12.1,8.5-14.8,11.6-15.9c4.1-1.3,11.2,0.7,24.4,15.9"/>
<ellipse id="XMLID_6_" class="st1" cx="46.9" cy="54.8" rx="2.7" ry="2.5"/>
<ellipse id="XMLID_7_" class="st1" cx="46.9" cy="228.3" rx="2.7" ry="2.5"/>
<ellipse id="XMLID_8_" class="st1" cx="513.5" cy="54.8" rx="2.7" ry="2.5"/>
<ellipse id="XMLID_9_" class="st1" cx="513.5" cy="228.3" rx="2.7" ry="2.5"/>
<rect id="XMLID_11_" x="138.2" y="57.4" class="st2" width="294.2" height="64.1"/>
<text id="XMLID_10_" transform="matrix(1 0 0 1 138.2035 100.3227)" class="st3 st4">FINDING</text>
<rect id="XMLID_13_" x="142.2" y="169.6" class="st2" width="268" height="93.7"/>
<text id="XMLID_12_" transform="matrix(1 0 0 1 142.203 219.7053)" class="st5 st6">Feynman</text>
<line id="XMLID_79_" class="st0" x1="81.1" y1="90.3" x2="94.3" y2="89.7"/>
<line id="XMLID_80_" class="st0" x1="94.3" y1="89.7" x2="94.3" y2="76.9"/>
<line id="XMLID_82_" class="st0" x1="103.2" y1="168.1" x2="101.8" y2="181.2"/>
<line id="XMLID_81_" class="st0" x1="101.8" y1="181.2" x2="114.5" y2="183.1"/>
<line id="XMLID_84_" class="st0" x1="471.3" y1="97.4" x2="473.6" y2="84.4"/>
<line id="XMLID_83_" class="st0" x1="473.6" y1="84.4" x2="461.1" y2="81.6"/>
<line id="XMLID_86_" class="st0" x1="460.8" y1="168.9" x2="448" y2="171.8"/>
<line id="XMLID_85_" class="st0" x1="448" y1="171.8" x2="450.3" y2="184.5"/>
</svg>
