<?xml version="1.0" encoding="utf-8"?>
<!-- Generator: Adobe Illustrator 19.0.0, SVG Export Plug-In . SVG Version: 6.00 Build 0)  -->
<svg version="1.1" id="Layer_1" xmlns="http://www.w3.org/2000/svg" xmlns:xlink="http://www.w3.org/1999/xlink" x="0px" y="0px"
	 viewBox="-439 577 560.3 287" style="enable-background:new -439 577 560.3 287;" xml:space="preserve">
<style type="text/css">
	.st0{fill:none;stroke:#000000;stroke-width:2;stroke-miterlimit:10;}
	.st1{stroke:#000000;stroke-miterlimit:10;}
	.st2{fill:none;}
	.st3{font-family:'ColonnaMT';}
	.st4{font-size:72px;}
	.st5{font-family:'GreatVibes-Regular';}
	.st6{font-size:80px;}
</style>
<g>
	<line id="XMLID_1_" class="st0" x1="-392.1" y1="631.8" x2="-284.8" y2="712.7"/>
	<line id="XMLID_2_" class="st0" x1="-284.8" y1="712.7" x2="-392.1" y2="805.3"/>
	<line id="XMLID_4_" class="st0" x1="74.5" y1="631.8" x2="-32.8" y2="712.7"/>
	<line id="XMLID_3_" class="st0" x1="-32.8" y1="712.7" x2="74.5" y2="805.3"/>
	<path id="XMLID_5_" class="st0" d="M-284.8,711.4c7.2-13.3,12.9-16,16.7-15.9c4.3,0.1,6.5,3.7,16.7,14.6
		c16.9,18.2,20.2,18.4,21.9,18.3c5-0.4,5.7-5.5,18-19.5c11.8-13.4,15.3-13.5,16.7-13.4c4.8,0.3,6.1,5.1,15.4,15.9
		c9.4,10.8,15.4,17.7,21.9,17.1c3.6-0.3,4.7-2.8,15.4-14.6c13.3-14.7,15.9-15.6,18-15.9c6-0.7,11.4,4,21.9,13.4
		c12.8,11.5,15.5,17.7,20.6,17.1c1.5-0.2,3.5-1.1,12.9-15.9c7.7-12.1,8.5-14.8,11.6-15.9c4.1-1.3,11.2,0.7,24.4,15.9"/>
	<ellipse id="XMLID_6_" class="st1" cx="-392.1" cy="631.8" rx="2.7" ry="2.5"/>
	<ellipse id="XMLID_7_" class="st1" cx="-392.1" cy="805.3" rx="2.7" ry="2.5"/>
	<ellipse id="XMLID_8_" class="st1" cx="74.5" cy="631.8" rx="2.7" ry="2.5"/>
	<ellipse id="XMLID_9_" class="st1" cx="74.5" cy="805.3" rx="2.7" ry="2.5"/>
	<rect id="XMLID_11_" x="-300.8" y="634.4" class="st2" width="294.2" height="64.1"/>
	<text id="XMLID_10_" transform="matrix(1 0 0 1 -300.7965 677.3228)" class="st3 st4">FINDING</text>
	<rect id="XMLID_13_" x="-296.8" y="746.6" class="st2" width="268" height="93.7"/>
	<text id="XMLID_12_" transform="matrix(1 0 0 1 -296.797 796.7053)" class="st5 st6">Feynman</text>
	<line id="XMLID_79_" class="st0" x1="-357.9" y1="667.3" x2="-344.7" y2="666.7"/>
	<line id="XMLID_80_" class="st0" x1="-344.7" y1="666.7" x2="-344.7" y2="653.9"/>
	<line id="XMLID_82_" class="st0" x1="-335.8" y1="745.1" x2="-337.2" y2="758.2"/>
	<line id="XMLID_81_" class="st0" x1="-337.2" y1="758.2" x2="-324.5" y2="760.1"/>
	<line id="XMLID_84_" class="st0" x1="32.3" y1="674.4" x2="34.6" y2="661.4"/>
	<line id="XMLID_83_" class="st0" x1="34.6" y1="661.4" x2="22.1" y2="658.6"/>
	<line id="XMLID_86_" class="st0" x1="21.8" y1="745.9" x2="9" y2="748.8"/>
	<line id="XMLID_85_" class="st0" x1="9" y1="748.8" x2="11.3" y2="761.5"/>
</g>
</svg>
