<?xml version="1.0" encoding="utf-8"?>
<!-- Generator: Adobe Illustrator 19.0.0, SVG Export Plug-In . SVG Version: 6.00 Build 0)  -->
<svg version="1.1" id="Layer_1" xmlns="http://www.w3.org/2000/svg" xmlns:xlink="http://www.w3.org/1999/xlink" x="0px" y="0px"
	 viewBox="0 0 1440 1440" style="enable-background:new 0 0 1440 1440;" xml:space="preserve">
<style type="text/css">
	.st0{fill:#FFFFFF;stroke:#000000;stroke-width:2;stroke-miterlimit:10;}
	.st1{font-family:'ImprintMT-Shadow';}
	.st2{font-size:100px;}
	.st3{fill:none;stroke:#000000;stroke-width:2;stroke-miterlimit:10;}
</style>
<g id="XMLID_28_">
	<path id="XMLID_1_" class="st0" d="M1212.9,244.7H227.1c-6.6,0-12-5.4-12-12V81.1c0-6.6,5.4-12,12-12h985.8c6.6,0,12,5.4,12,12
		v151.6C1224.9,239.3,1219.5,244.7,1212.9,244.7z"/>
	<text id="XMLID_2_" transform="matrix(1 0 0 1 591.6339 185.0242)" class="st1 st2">Menu</text>
</g>
<path id="XMLID_15_" class="st3" d="M320.5,366.6c103.3,0.9,189.8,4.2,253.7,7.3c159.2,7.8,226.5,17.1,295.1,34.1
	c109.9,27.3,165.5,42,195.1,92.7c41.5,70.9,19.1,180.2-41.5,229.3c-25.6,20.8-55.3,26.9-114.6,39c-53.4,11-82.7,9.2-146.3,14.6
	c-95.4,8.1-161.7,13.9-243.9,29.3c-46.9,8.8-88.6,12.2-136.6,36.6c-51.1,26-69,52.2-73.2,58.5c-28.2,43-25.6,87.9-24.4,100
	c5.1,53,36.3,86.8,51.2,102.4c10.1,10.7,34.3,33.7,112.2,63.4c38.4,14.6,94.6,32.6,165.9,43.9c190.6,42.7,172.6,43.7,219.5,51.2
	c26,4.2,139.9,5.4,295.1,0"/>
<g id="XMLID_29_">
	<ellipse id="XMLID_3_" class="st0" cx="320.5" cy="373.9" rx="78" ry="79.3"/>
	<text id="XMLID_16_" transform="matrix(1 0 0 1 296.1707 405.6588)" class="st1 st2">1</text>
</g>
<g id="XMLID_30_">
	<ellipse id="XMLID_4_" class="st0" cx="582" cy="380.9" rx="78" ry="79.3"/>
	<text id="XMLID_17_" transform="matrix(1 0 0 1 558.9756 415.1104)" class="st1 st2">2</text>
</g>
<g id="XMLID_31_">
	<ellipse id="XMLID_5_" class="st0" cx="839.3" cy="419.8" rx="78" ry="79.3"/>
	<text id="XMLID_18_" transform="matrix(1 0 0 1 820.0677 453.1812)" class="st1 st2">3</text>
</g>
<g id="XMLID_32_">
	<ellipse id="XMLID_6_" class="st0" cx="1073.5" cy="498.4" rx="78" ry="79.3"/>
	<text id="XMLID_19_" transform="matrix(1 0 0 1 1054.0975 530.1465)" class="st1 st2">4</text>
</g>
<g id="XMLID_33_">
	<ellipse id="XMLID_7_" class="st0" cx="1017.3" cy="720.2" rx="78" ry="79.3"/>
	<text id="XMLID_20_" transform="matrix(1 0 0 1 995.4033 759.4149)" class="st1 st2">5</text>
</g>
<g id="XMLID_34_">
	<ellipse id="XMLID_8_" class="st0" cx="776.3" cy="771.7" rx="78" ry="79.3"/>
	<text id="XMLID_21_" transform="matrix(1 0 0 1 745.0189 799.463)" class="st1 st2">6</text>
</g>
<g id="XMLID_35_">
	<ellipse id="XMLID_9_" class="st0" cx="524.6" cy="809.8" rx="78" ry="79.3"/>
	<text id="XMLID_22_" transform="matrix(1 0 0 1 503.9019 839.9026)" class="st1 st2">7</text>
</g>
<g id="XMLID_36_">
	<ellipse id="XMLID_10_" class="st0" cx="293.2" cy="901.7" rx="78" ry="79.3"/>
	<text id="XMLID_23_" transform="matrix(1 0 0 1 272.3409 934.2685)" class="st1 st2">8</text>
</g>
<g id="XMLID_37_">
	<ellipse id="XMLID_11_" class="st0" cx="337.5" cy="1118.3" rx="78" ry="79.3"/>
	<text id="XMLID_24_" transform="matrix(1 0 0 1 320.4634 1150.7882)" class="st1 st2">9</text>
</g>
<g id="XMLID_38_">
	<ellipse id="XMLID_12_" class="st0" cx="566.8" cy="1230.1" rx="78" ry="79.3"/>
	<text id="XMLID_25_" transform="matrix(1 0 0 1 517.5764 1263.4113)" class="st1 st2">10</text>
</g>
<g id="XMLID_39_">
	<ellipse id="XMLID_13_" class="st0" cx="823.1" cy="1267.4" rx="78" ry="79.3"/>
	<text id="XMLID_26_" transform="matrix(1 0 0 1 777.3376 1300.4606)" class="st1 st2">11</text>
</g>
<g id="XMLID_40_">
	<polygon id="XMLID_14_" class="st0" points="1211.2,1393.8 1128.5,1347.2 1044.4,1391.3 1061.8,1295.5 995.4,1226.5 1088.9,1214 
		1131.9,1127.3 1172.3,1215.2 1265.3,1230.7 1196.8,1297.6 	"/>
	<text id="XMLID_27_" transform="matrix(1 0 0 1 1076.4526 1305.4602)" class="st1 st2">12</text>
</g>
</svg>
