<?xml version="1.0" encoding="utf-8"?>
<!-- Generator: Adobe Illustrator 19.0.0, SVG Export Plug-In . SVG Version: 6.00 Build 0)  -->
<svg version="1.1" id="Layer_1" xmlns="http://www.w3.org/2000/svg" xmlns:xlink="http://www.w3.org/1999/xlink" x="0px" y="0px"
	 viewBox="0 0 895.3 962.2" style="enable-background:new 0 0 895.3 962.2;" xml:space="preserve">
<style type="text/css">
	.st0{fill:none;stroke:#000000;stroke-width:2;stroke-miterlimit:10;}
</style>
<path id="XMLID_1_" class="st0" d="M68.2,23.2c103.3,0.9,189.8,4.2,253.7,7.3C481,38.3,548.3,47.6,616.9,64.7
	c109.9,27.3,165.5,42,195.1,92.7c41.5,70.9,19.1,180.2-41.5,229.3c-25.6,20.8-55.3,26.9-114.6,39c-53.4,11-82.7,9.2-146.3,14.6
	c-95.4,8.1-161.7,13.9-243.9,29.3c-46.9,8.8-88.6,12.2-136.6,36.6c-51.1,26-69,52.2-73.2,58.5c-28.2,43-25.6,87.9-24.4,100
	c5.1,53,36.3,86.8,51.2,102.4c10.1,10.7,34.3,33.7,112.2,63.4c38.4,14.6,94.6,32.6,165.9,43.9c190.6,42.7,172.6,43.7,219.5,51.2
	c26,4.2,139.9,5.4,295.1,0"/>
</svg>
