<?xml version="1.0" encoding="utf-8"?>
<!-- Generator: Adobe Illustrator 19.0.0, SVG Export Plug-In . SVG Version: 6.00 Build 0)  -->
<svg version="1.1" id="Layer_1" xmlns="http://www.w3.org/2000/svg" xmlns:xlink="http://www.w3.org/1999/xlink" x="0px" y="0px"
	 viewBox="0 0 441 239.7" style="enable-background:new 0 0 441 239.7;" xml:space="preserve">
<path id="XMLID_2_" d="M407.7,56.7H39c-5.5,0-9.9-4.5-9.9-9.9v0c0-5.5,4.5-9.9,9.9-9.9h368.7c5.5,0,9.9,4.5,9.9,9.9v0
	C417.6,52.3,413.2,56.7,407.7,56.7z"/>
<path id="XMLID_3_" d="M407.7,126.2H39c-5.5,0-9.9-4.5-9.9-9.9v0c0-5.5,4.5-9.9,9.9-9.9h368.7c5.5,0,9.9,4.5,9.9,9.9v0
	C417.6,121.7,413.2,126.2,407.7,126.2z"/>
<path id="XMLID_4_" d="M407.7,199.9H39c-5.5,0-9.9-4.5-9.9-9.9v0c0-5.5,4.5-9.9,9.9-9.9h368.7c5.5,0,9.9,4.5,9.9,9.9v0
	C417.6,195.4,413.2,199.9,407.7,199.9z"/>
</svg>
