<?xml version="1.0" encoding="utf-8"?>
<!-- Generator: Adobe Illustrator 19.0.0, SVG Export Plug-In . SVG Version: 6.00 Build 0)  -->
<svg version="1.1" id="Layer_1" xmlns="http://www.w3.org/2000/svg" xmlns:xlink="http://www.w3.org/1999/xlink" x="0px" y="0px"
	 viewBox="-623 313.3 191.8 815.7" style="enable-background:new -623 313.3 191.8 815.7;" xml:space="preserve">
<style type="text/css">
	.st0{fill:none;stroke:#F49E9F;stroke-width:3;stroke-miterlimit:10;}
	.st1{fill:none;}
	.st2{enable-background:new    ;}
	.st3{fill:#231F20;}
	.st4{fill:none;stroke:#FDF48E;stroke-width:3;stroke-miterlimit:10;}
	.st5{font-family:'ImprintMT-Shadow';}
	.st6{font-size:60px;}
	.st7{font-family:'Geneva';}
</style>
<g id="XMLID_86_">
	<path id="XMLID_48_" class="st0" d="M-1696.4,1748.7H-1848c-6.6,0-12-5.4-12-12v-152.8c0-6.6,5.4-12,12-12h151.6
		c6.6,0,12,5.4,12,12v152.8C-1684.4,1743.3-1689.8,1748.7-1696.4,1748.7z"/>
	<rect id="XMLID_16_" x="-1791.3" y="1628.3" class="st1" width="40.6" height="63.9"/>
	<text id="XMLID_45_" transform="matrix(1 0 0 1 -1791.252 1670.157)" class="st3 st5 st6">Z</text>
</g>
<g id="XMLID_87_">
	<path id="XMLID_43_" class="st4" d="M-451.3,1119.8h-151.6c-6.6,0-12-5.4-12-12V334.5c0-6.6,5.4-12,12-12h151.6c6.6,0,12,5.4,12,12
		v773.2C-439.3,1114.4-444.7,1119.8-451.3,1119.8z"/>
	<rect id="XMLID_58_" x="-550" y="689.7" class="st1" width="53.3" height="61"/>
	<text transform="matrix(1 0 0 1 -549.9681 736.9347)" class="st5 st6">H</text>
	<text transform="matrix(1 0 0 1 -498.7681 736.9347)" class="st7 st6"> </text>
</g>
</svg>
