<?xml version="1.0" encoding="utf-8"?>
<!-- Generator: Adobe Illustrator 19.0.0, SVG Export Plug-In . SVG Version: 6.00 Build 0)  -->
<svg version="1.1" id="Layer_1" xmlns="http://www.w3.org/2000/svg" xmlns:xlink="http://www.w3.org/1999/xlink" x="0px" y="0px"
	 viewBox="-623 624.8 191.8 193.2" style="enable-background:new -623 624.8 191.8 193.2;" xml:space="preserve">
<style type="text/css">
	.st0{fill:none;stroke:#F49E9F;stroke-width:3;stroke-miterlimit:10;}
	.st1{fill:none;}
	.st2{enable-background:new    ;}
	.st3{fill:#231F20;}
	.st4{fill:none;stroke:#F49FA0;stroke-width:3;stroke-miterlimit:10;}
	.st5{font-family:'ImprintMT-Shadow';}
	.st6{font-size:60px;}
</style>
<g id="XMLID_85_">
	<path id="XMLID_51_" class="st0" d="M-1696.4,2060.2H-1848c-6.6,0-12-5.4-12-12v-152.8c0-6.6,5.4-12,12-12h151.6
		c6.6,0,12,5.4,12,12v152.8C-1684.4,2054.8-1689.8,2060.2-1696.4,2060.2z"/>
	<rect id="XMLID_16_" x="-1802.9" y="1945.3" class="st1" width="71.2" height="61"/>
	<text id="XMLID_49_" transform="matrix(1 0 0 1 -1802.9374 1987.103)" class="st3 st5 st6">W</text>
</g>
<g id="XMLID_1_">
	<path id="XMLID_3_" class="st4" d="M-451.3,809.8h-151.6c-6.6,0-12-5.4-12-12V645c0-6.6,5.4-12,12-12h151.6c6.6,0,12,5.4,12,12
		v152.8C-439.3,804.4-444.7,809.8-451.3,809.8z"/>
	<rect id="XMLID_50_" x="-557.8" y="694.9" class="st1" width="71.2" height="61"/>
	<text id="XMLID_2_" transform="matrix(1 0 0 1 -557.8374 736.7031)" class="st5 st6">W</text>
</g>
</svg>
