<?xml version="1.0" encoding="utf-8"?>
<!-- Generator: Adobe Illustrator 19.0.0, SVG Export Plug-In . SVG Version: 6.00 Build 0)  -->
<svg version="1.1" id="Layer_1" xmlns="http://www.w3.org/2000/svg" xmlns:xlink="http://www.w3.org/1999/xlink" x="0px" y="0px"
	 viewBox="0 0 263.7 207.8" style="enable-background:new 0 0 263.7 207.8;" xml:space="preserve">
<style type="text/css">
	.st0{fill:none;stroke:#000000;stroke-width:3;stroke-miterlimit:10;}
</style>
<g id="XMLID_122_">
	<ellipse id="XMLID_2_" cx="252" cy="11.4" rx="11.7" ry="11.4"/>
	<ellipse id="XMLID_3_" cx="11.7" cy="196.4" rx="11.7" ry="11.4"/>
	<path id="XMLID_4_" class="st0" d="M15,198.2c1.7,0.8,27.6,13,51.5-1.7c27-16.7,23.9-50.7,23.6-53.6c-0.8-7.1-3-28.1-19.3-34.7
		c-12-4.9-28.9-0.8-35.4,10.7c-8.3,14.8,5.2,33.1,6.4,34.7c16,21.1,52.5,25.6,79.4,12.9c21.2-10.1,40.8-33.1,39.7-59
		C160.1,91,150.7,67,134,65.3c-9.9-1-20.5,5.9-24.7,15c-7,15.4,5.6,34.9,19.3,42.2c19.8,10.6,45.6-2.1,59-15
		c32-30.9,25.9-94.7,4.3-105.5c-9.1-4.5-23.6-1-29,7.5c-5.8,9.3,0.5,22.7,5.4,29.3c14.3,19.7,51,28.6,70.8,10.3
		C251.3,38,252,21.2,252,15.9"/>
</g>
</svg>
