<?xml version="1.0" encoding="utf-8"?>
<!-- Generator: Adobe Illustrator 19.0.0, SVG Export Plug-In . SVG Version: 6.00 Build 0)  -->
<svg version="1.1" id="Layer_1" xmlns="http://www.w3.org/2000/svg" xmlns:xlink="http://www.w3.org/1999/xlink" x="0px" y="0px"
	 viewBox="0 0 1440 1440" style="enable-background:new 0 0 1440 1440;" xml:space="preserve">
<style type="text/css">
	.st0{fill:none;stroke:#000000;stroke-width:3;stroke-miterlimit:10;}
	.st1{fill:none;stroke:#82D4F7;stroke-width:4;stroke-miterlimit:10;}
	.st2{fill:none;stroke:#A6D493;stroke-width:3;stroke-miterlimit:10;}
	.st3{fill:none;stroke:#F49FA0;stroke-width:3;stroke-miterlimit:10;}
	.st4{font-family:'ImprintMT-Shadow';}
	.st5{font-size:36px;}
	.st6{fill:none;stroke:#C09BC8;stroke-width:4;stroke-miterlimit:10;}
	.st7{fill:none;}
	.st8{font-size:60px;}
	.st9{font-family:'Geneva';}
	.st10{fill:none;stroke:#FDF48E;stroke-width:3;stroke-miterlimit:10;}
</style>
<g id="XMLID_60_">
	<path id="XMLID_61_" class="st0" d="M1334.3,1143.2H78.4c-6.6,0-12-5.4-12-12V82.3c0-6.6,5.4-12,12-12h1255.9c6.6,0,12,5.4,12,12
		v1048.9C1346.3,1137.8,1340.9,1143.2,1334.3,1143.2z"/>
	<path id="XMLID_62_" class="st1" d="M152.1,671.4h-36.6c-6.6,0-12-5.4-12-12V300.6c0-6.6,5.4-12,12-12h36.6c6.6,0,12,5.4,12,12
		v358.8C164.1,666,158.7,671.4,152.1,671.4z"/>
	<path id="XMLID_63_" class="st2" d="M151.1,1085.8h-36.6c-6.6,0-12-5.4-12-12V715c0-6.6,5.4-12,12-12h36.6c6.6,0,12,5.4,12,12
		v358.8C163.1,1080.4,157.7,1085.8,151.1,1085.8z"/>
	<path id="XMLID_64_" class="st3" d="M871.1,1085.8h-36.6c-6.6,0-12-5.4-12-12V300.6c0-6.6,5.4-12,12-12h36.6c6.6,0,12,5.4,12,12
		v773.2C883.1,1080.4,877.7,1085.8,871.1,1085.8z"/>
	<text id="XMLID_65_" transform="matrix(7.011221e-03 -1 1 7.011221e-03 144.2527 549.6837)" class="st4 st5">Quarks</text>
	<text id="XMLID_66_" transform="matrix(8.440943e-03 -1 1 8.440943e-03 142.2653 964.7008)" class="st4 st5">Leptons</text>
	<text id="XMLID_67_" transform="matrix(-6.335963e-03 -1 1 -6.335963e-03 862.9621 729.3793)" class="st4 st5">Bosons</text>
	<path id="XMLID_68_" class="st6" d="M1296.6,259.8H115.5c-6.6,0-12-5.4-12-12V129.7c0-6.6,5.4-12,12-12h1181.1c6.6,0,12,5.4,12,12
		v118.1C1308.6,254.4,1303.2,259.8,1296.6,259.8z"/>
	<rect id="XMLID_70_" x="318.2" y="163.3" class="st7" width="776.3" height="61"/>
	<text id="XMLID_69_" transform="matrix(1 0 0 1 318.2237 205.0832)" class="st4 st8">THE STANDARD MODEL</text>
</g>
<g id="XMLID_71_">
	<path id="XMLID_1_" class="st1" d="M358.1,465.4H206.5c-6.6,0-12-5.4-12-12V300.6c0-6.6,5.4-12,12-12h151.6c6.6,0,12,5.4,12,12
		v152.8C370.1,460,364.7,465.4,358.1,465.4z"/>
	<rect id="XMLID_2_" x="261.6" y="346.5" class="st7" width="41.5" height="61"/>
	<text id="XMLID_3_" transform="matrix(1 0 0 1 261.5609 388.3123)" class="st4 st8">u</text>
</g>
<g id="XMLID_72_">
	<path id="XMLID_5_" class="st1" d="M565.4,465.4H413.8c-6.6,0-12-5.4-12-12V300.6c0-6.6,5.4-12,12-12h151.6c6.6,0,12,5.4,12,12
		v152.8C577.4,460,572,465.4,565.4,465.4z"/>
	<rect id="XMLID_17_" x="468.9" y="346.5" class="st7" width="41.5" height="61"/>
	<text id="XMLID_4_" transform="matrix(1 0 0 1 468.8923 388.3123)" class="st4 st8">c</text>
</g>
<g id="XMLID_73_">
	<path id="XMLID_8_" class="st1" d="M774.5,465.4H622.9c-6.6,0-12-5.4-12-12V300.6c0-6.6,5.4-12,12-12h151.6c6.6,0,12,5.4,12,12
		v152.8C786.5,460,781.1,465.4,774.5,465.4z"/>
	<rect id="XMLID_7_" x="677.9" y="346.5" class="st7" width="41.5" height="61"/>
	<text id="XMLID_6_" transform="matrix(1 0 0 1 677.9294 388.3123)" class="st4 st8">t</text>
</g>
<g id="XMLID_74_">
	<path id="XMLID_11_" class="st1" d="M358.1,671.4H206.5c-6.6,0-12-5.4-12-12V506.6c0-6.6,5.4-12,12-12h151.6c6.6,0,12,5.4,12,12
		v152.8C370.1,666,364.7,671.4,358.1,671.4z"/>
	<rect id="XMLID_10_" x="261.6" y="552.5" class="st7" width="41.5" height="61"/>
	<text id="XMLID_9_" transform="matrix(1 0 0 1 261.5609 594.322)" class="st4 st8">d</text>
</g>
<g id="XMLID_75_">
	<path id="XMLID_14_" class="st1" d="M564.7,671.4H413.1c-6.6,0-12-5.4-12-12V506.6c0-6.6,5.4-12,12-12h151.6c6.6,0,12,5.4,12,12
		v152.8C576.7,666,571.3,671.4,564.7,671.4z"/>
	<rect id="XMLID_13_" x="468.2" y="552.5" class="st7" width="41.5" height="61"/>
	<text id="XMLID_12_" transform="matrix(1 0 0 1 468.1591 594.322)" class="st4 st8">s</text>
</g>
<g id="XMLID_76_">
	<path id="XMLID_18_" class="st1" d="M774.5,671.4H622.9c-6.6,0-12-5.4-12-12V506.6c0-6.6,5.4-12,12-12h151.6c6.6,0,12,5.4,12,12
		v152.8C786.5,666,781.1,671.4,774.5,671.4z"/>
	<rect id="XMLID_16_" x="677.9" y="552.5" class="st7" width="41.5" height="61"/>
	<text id="XMLID_15_" transform="matrix(1 0 0 1 677.9294 594.3219)" class="st4 st8">b</text>
</g>
<g id="XMLID_77_">
	<path id="XMLID_32_" class="st2" d="M357.2,879.8H205.6c-6.6,0-12-5.4-12-12V715c0-6.6,5.4-12,12-12h151.6c6.6,0,12,5.4,12,12
		v152.8C369.2,874.4,363.8,879.8,357.2,879.8z"/>
	<rect id="XMLID_47_" x="260.7" y="760.9" class="st7" width="41.5" height="61"/>
	<text id="XMLID_31_" transform="matrix(1 0 0 1 260.708 802.7031)" class="st4 st8">e</text>
</g>
<g id="XMLID_79_">
	<path id="XMLID_26_" class="st2" d="M773.6,879.8H622c-6.6,0-12-5.4-12-12V715c0-6.6,5.4-12,12-12h151.6c6.6,0,12,5.4,12,12v152.8
		C785.6,874.4,780.2,879.8,773.6,879.8z"/>
	<rect id="XMLID_38_" x="677.1" y="760.9" class="st7" width="41.5" height="61"/>
	<text id="XMLID_25_" transform="matrix(1 0 0 1 677.0766 808.1635)" class="st9 st8">τ</text>
</g>
<g id="XMLID_78_">
	<path id="XMLID_29_" class="st2" d="M564.6,879.8H413c-6.6,0-12-5.4-12-12V715c0-6.6,5.4-12,12-12h151.6c6.6,0,12,5.4,12,12v152.8
		C576.6,874.4,571.2,879.8,564.6,879.8z"/>
	<rect id="XMLID_35_" x="471.5" y="759.4" class="st7" width="38.1" height="63.9"/>
	<text id="XMLID_33_" transform="matrix(1 0 0 1 471.5291 801.2474)" class="st4 st8">µ</text>
</g>
<g id="XMLID_80_">
	<path id="XMLID_24_" class="st2" d="M357.2,1085.8H205.6c-6.6,0-12-5.4-12-12V921c0-6.6,5.4-12,12-12h151.6c6.6,0,12,5.4,12,12
		v152.8C369.2,1080.4,363.8,1085.8,357.2,1085.8z"/>
	<rect id="XMLID_34_" x="262.4" y="965.4" class="st7" width="38.1" height="63.9"/>
	<text id="XMLID_23_" transform="matrix(1 0 0 1 262.393 1007.257)" class="st4 st8">v</text>
	<rect id="XMLID_42_" x="285.3" y="999.1" class="st7" width="41.5" height="61"/>
	<text id="XMLID_41_" transform="matrix(1 0 0 1 285.2926 1024.1489)" class="st4 st5">e</text>
</g>
<g id="XMLID_82_">
	<path id="XMLID_20_" class="st2" d="M773.6,1085.8H622c-6.6,0-12-5.4-12-12V921c0-6.6,5.4-12,12-12h151.6c6.6,0,12,5.4,12,12v152.8
		C785.6,1080.4,780.2,1085.8,773.6,1085.8z"/>
	<rect id="XMLID_30_" x="678.8" y="965.4" class="st7" width="38.1" height="63.9"/>
	<text id="XMLID_27_" transform="matrix(1 0 0 1 678.7616 1007.257)" class="st4 st8">v</text>
	<rect id="XMLID_40_" x="704.8" y="997.8" class="st7" width="41.5" height="61"/>
	<text id="XMLID_39_" transform="matrix(1 0 0 1 704.8397 1026.2045)" class="st9 st5">τ</text>
</g>
<g id="XMLID_81_">
	<path id="XMLID_22_" class="st2" d="M563.8,1085.8H412.2c-6.6,0-12-5.4-12-12V921c0-6.6,5.4-12,12-12h151.6c6.6,0,12,5.4,12,12
		v152.8C575.8,1080.4,570.4,1085.8,563.8,1085.8z"/>
	<rect id="XMLID_21_" x="471.5" y="965.4" class="st7" width="38.1" height="63.9"/>
	<text id="XMLID_19_" transform="matrix(1 0 0 1 471.5291 1007.257)" class="st4 st8">v</text>
	<rect id="XMLID_37_" x="494.8" y="997.4" class="st7" width="38.1" height="63.9"/>
	<text id="XMLID_36_" transform="matrix(1 0 0 1 494.7882 1022.4729)" class="st4 st5">µ</text>
</g>
<g id="XMLID_83_">
	<path id="XMLID_57_" class="st3" d="M1085.5,465.4H933.8c-6.6,0-12-5.4-12-12V300.6c0-6.6,5.4-12,12-12h151.6c6.6,0,12,5.4,12,12
		v152.8C1097.5,460,1092.1,465.4,1085.5,465.4z"/>
	<rect id="XMLID_56_" x="988.9" y="346.5" class="st7" width="41.5" height="61"/>
	<text id="XMLID_55_" transform="matrix(1 0 0 1 988.9155 393.7728)" class="st9 st8">γ</text>
</g>
<g id="XMLID_84_">
	<path id="XMLID_54_" class="st3" d="M1085.5,671.4H933.8c-6.6,0-12-5.4-12-12V506.6c0-6.6,5.4-12,12-12h151.6c6.6,0,12,5.4,12,12
		v152.8C1097.5,666,1092.1,671.4,1085.5,671.4z"/>
	<rect id="XMLID_53_" x="988.9" y="552.5" class="st7" width="41.5" height="61"/>
	<text id="XMLID_52_" transform="matrix(1 0 0 1 988.9155 594.3219)" class="st4 st8">g</text>
</g>
<g id="XMLID_85_">
	<path id="XMLID_51_" class="st3" d="M1084.6,879.8H933c-6.6,0-12-5.4-12-12V715c0-6.6,5.4-12,12-12h151.6c6.6,0,12,5.4,12,12v152.8
		C1096.6,874.4,1091.2,879.8,1084.6,879.8z"/>
	<rect id="XMLID_50_" x="978.1" y="764.9" class="st7" width="71.2" height="61"/>
	<text id="XMLID_49_" transform="matrix(1 0 0 1 978.0626 806.7031)" class="st4 st8">W</text>
</g>
<g id="XMLID_86_">
	<path id="XMLID_48_" class="st3" d="M1084.6,1085.8H933c-6.6,0-12-5.4-12-12V921c0-6.6,5.4-12,12-12h151.6c6.6,0,12,5.4,12,12
		v152.8C1096.6,1080.4,1091.2,1085.8,1084.6,1085.8z"/>
	<rect id="XMLID_46_" x="989.7" y="965.4" class="st7" width="40.6" height="63.9"/>
	<text id="XMLID_45_" transform="matrix(1 0 0 1 989.7481 1007.257)" class="st4 st8">Z</text>
</g>
<g id="XMLID_87_">
	<path id="XMLID_43_" class="st10" d="M1296.6,1085.8H1145c-6.6,0-12-5.4-12-12V300.6c0-6.6,5.4-12,12-12h151.6c6.6,0,12,5.4,12,12
		v773.2C1308.6,1080.4,1303.2,1085.8,1296.6,1085.8z"/>
	<rect id="XMLID_58_" x="1197.9" y="655.7" class="st7" width="53.3" height="61"/>
	<text id="XMLID_44_" transform="matrix(1 0 0 1 1197.9319 702.973)"><tspan x="0" y="0" class="st4 st8">H</tspan><tspan x="51.2" y="0" class="st9 st8"> </tspan></text>
</g>
</svg>
